PathFileType	4	(X/Y/Z)	S01_0009_Gait_markers.trc
DataRate	CameraRate	NumFrames	NumMarkers	Units	OrigDataRate	OrigDataStartFrame	OrigNumFrames
250.000000	250.000000	4	54	mm	250.000000	0	343
Frame#	Time	HEAD_ANT			R_HEAD			L_HEAD			C7			R_BACK			L_BACK			STERNUM			R_ACROMION			R_HUM_PROX			R_HUM_ANT			R_HUM_POST			R_ELBOW_LAT			R_ELBOW_MED			R_FOREARM			R_WIRST_LAT			R_WRITS_MED			R_HAND			L_ACROMION			L_HUM_PROX			L_HUM_ANT			L_HUM_POST			L_ELBOW_LAT			L_ELBOW_MED			L_FOREARM			L_WRIST_LAT			L_WIRST_MED			L_HAND			R_ILIAC			SACRUM			L_ILIAC			R_GTROCH			R_THIGH__1			R_THIGH_2			R_THIGH_3			R_THIGH_4			R_SHANK_1			R_SHANK_2			R_SHANK_3			R_SHANK_4			R_HEEL			R_FOOT_LAT			R_FOOT_MED			L_GTROCH			L_THIGH_1			L_THIGH_2			L_THIGH_3			L_THIGH_4			L_SHANK_1			L_SHANK_2			L_SHANK_3			L_SHANK_4			L_HEEL			L_FOOT_LAT			L_FOOT_MED			
		X1	Y1	Z1	X2	Y2	Z2	X3	Y3	Z3	X4	Y4	Z4	X5	Y5	Z5	X6	Y6	Z6	X7	Y7	Z7	X8	Y8	Z8	X9	Y9	Z9	X10	Y10	Z10	X11	Y11	Z11	X12	Y12	Z12	X13	Y13	Z13	X14	Y14	Z14	X15	Y15	Z15	X16	Y16	Z16	X17	Y17	Z17	X18	Y18	Z18	X19	Y19	Z19	X20	Y20	Z20	X21	Y21	Z21	X22	Y22	Z22	X23	Y23	Z23	X24	Y24	Z24	X25	Y25	Z25	X26	Y26	Z26	X27	Y27	Z27	X28	Y28	Z28	X29	Y29	Z29	X30	Y30	Z30	X31	Y31	Z31	X32	Y32	Z32	X33	Y33	Z33	X34	Y34	Z34	X35	Y35	Z35	X36	Y36	Z36	X37	Y37	Z37	X38	Y38	Z38	X39	Y39	Z39	X40	Y40	Z40	X41	Y41	Z41	X42	Y42	Z42	X43	Y43	Z43	X44	Y44	Z44	X45	Y45	Z45	X46	Y46	Z46	X47	Y47	Z47	X48	Y48	Z48	X49	Y49	Z49	X50	Y50	Z50	X51	Y51	Z51	X52	Y52	Z52	X53	Y53	Z53	X54	Y54	Z54	

1	0	115.4669418334961	1746.5341796875	-332.902435302734	57.23902130126953	1697.246826171875	-254.8803100585934	57.22724151611328	1697.3681640625	-403.0198364257809	-80.73725128173828	1527.375122070312	-328.6151428222653	-155.2675018310547	1331.798828125	-258.4931640624997	-150.9140167236328	1332.594848632812	-401.6202392578122	97.11906433105469	1367.201416015625	-319.8870544433591	-8.036834716796875	1485.466796875	-153.9606475830075	-55.78633880615234	1330.278442382812	-58.03134155273408	2.419097423553467	1243.319458007812	-48.68237686157199	-119.5903091430664	1249.477294921875	-45.75851821899386	-70.19759368896484	1141.723510742188	-32.41001510620092	-99.03973388671875	1137.634155273438	-110.7531585693357	20.09369277954102	956.889404296875	-20.30832481384256	59.62273788452148	889.6284790039062	-57.6156120300291	-10.44320487976074	867.5850219726562	-22.52346801757793	57.49605941772461	801.630859375	-0.7906671166418203	0.568781852722168	1479.74462890625	-493.0516662597653	-16.38732147216797	1312.565185546875	-590.5247192382809	47.00832748413086	1232.54638671875	-584.3732910156248	-72.88072967529297	1233.65234375	-615.8483276367185	-12.62484264373779	1130.445678710938	-620.8956909179685	-64.00166320800781	1122.742431640625	-563.5358276367185	119.8930358886719	975.8142089843751	-586.4278564453123	161.9776611328125	930.4942626953126	-532.7357177734373	121.9871444702148	889.2653808593751	-587.4191894531248	212.4073638916016	866.4318847656251	-579.2176513671873	-8.663909912109375	1081.641723632812	-153.1479034423826	-133.9979095458984	1049.28466796875	-318.1200866699216	-14.28080558776855	1073.045532226562	-495.3219604492185	-40.29269790649414	930.4644775390625	-130.2843475341795	80.07804870605469	662.6419677734375	-147.4545898437499	129.4004058837891	694.164794921875	-142.2021179199217	164.0334625244141	596.7095336914062	-173.567169189453	100.2469100952148	584.2786254882812	-165.2603302001952	88.29429626464844	368.8565979003907	-161.733673095703	143.6731567382812	346.3850097656251	-170.4650878906249	139.0231170654297	261.6141357421876	-186.4720458984374	74.76094055175781	269.8026733398438	-182.2312316894531	43.3005256652832	54.45542526245123	-269.9908752441406	190.9570617675781	31.75321388244632	-163.3792266845703	253.6504211425781	49.50894546508795	-242.8794403076172	-54.33964538574219	959.1587524414064	-494.6244812011716	-8.090629577636719	665.0821533203126	-474.6494140624998	-58.02054977416992	691.8156127929689	-491.7569274902342	-84.4698486328125	597.1934814453126	-460.4938354492186	-24.05353927612305	588.2499389648439	-449.4637145996093	-114.7319183349609	328.3403930664064	-438.8298645019531	-175.1172027587891	316.7786865234376	-440.5685119628906	-193.1143493652344	233.3154907226563	-421.5074768066406	-128.9535980224609	228.5935058593751	-413.8609008789062	-266.2362060546875	55.28711700439461	-347.281494140625	-94.48012542724609	20.55935668945322	-422.8094177246094	-53.78367614746094	26.72889900207527	-319.1097106933594	
2	0.004	121.1421661376953	1745.728881835938	-332.4023742675777	62.84441757202148	1696.323974609375	-254.6267395019528	62.70119476318359	1696.636108398438	-402.6129455566402	-75.04451751708984	1526.602661132812	-328.4922485351559	-149.3385925292969	1330.527221679688	-259.3675231933591	-145.4372406005859	1331.85107421875	-401.571594238281	102.7136764526367	1366.272094726562	-319.5527343749997	-2.65307879447937	1484.503540039062	-153.6457214355465	-50.95487213134766	1329.390747070312	-57.88363265991181	7.223949432373047	1242.318969726562	-48.30127716064425	-114.8499450683594	1248.465942382812	-45.86587905883761	-65.59629058837891	1140.728881835938	-32.27192687988256	-94.0887451171875	1136.777954101562	-110.7868728637693	24.43415641784668	956.037109375	-19.90391921997049	64.09374237060547	888.7213134765625	-56.90479278564433	-5.713411808013916	866.78955078125	-22.0360565185545	61.64976119995117	800.75244140625	-0.07778317481261593	6.219191551208496	1478.880615234375	-492.8878173828122	-10.12331962585449	1311.7802734375	-590.3956298828122	53.30771636962891	1232.027465820313	-584.2174072265623	-66.51143646240234	1232.884765625	-616.022033691406	-5.775209903717041	1129.748291015625	-620.9193115234373	-57.53986358642578	1121.77978515625	-563.9263916015623	127.1705780029297	975.8729858398439	-585.902648925781	169.2551422119141	930.7684936523439	-531.8710937499998	129.8412780761719	889.3756713867189	-586.8812255859373	220.3559875488281	866.9691162109376	-578.0460205078123	-3.177073001861572	1080.660766601562	-152.9717559814451	-128.5556793212891	1048.521484375	-317.9204406738279	-8.956841468811035	1072.085205078125	-495.3201599121091	-34.6956787109375	929.5139770507812	-130.3447113037107	85.44851684570312	661.7581787109375	-147.8211364746092	134.6702117919922	693.30615234375	-142.5798187255858	169.3080291748047	596.0960083007812	-174.2925415039061	105.765625	583.3966674804688	-165.6862030029295	97.60613250732422	367.0603637695313	-162.1390533447265	153.3871612548828	345.7751159667969	-170.8120727539062	150.9001922607422	261.1669921875001	-186.4691925048828	86.49903869628906	267.7729797363282	-182.6837005615234	60.54338455200195	51.88244247436529	-270.12451171875	208.6362762451172	31.94878768920902	-163.4813995361328	270.8788146972656	50.78733444213873	-242.9438323974609	-49.5778923034668	958.6544799804689	-494.4797058105466	-5.344374179840088	664.7488403320314	-475.0391845703123	-55.41259002685547	691.7260742187501	-491.7761840820311	-82.93495941162109	596.8150634765626	-460.1210632324218	-21.99134063720703	587.9689331054689	-449.8925170898436	-114.2839889526367	327.9747009277345	-438.6234436035156	-174.4259033203125	317.4454956054689	-440.4899291992187	-192.8000946044922	233.6652069091798	-421.3457336425781	-128.5243377685547	228.9397430419923	-414.0262451171874	-266.1063537597656	55.95474624633797	-347.0958557128906	-94.60942077636719	20.51186561584482	-422.91015625	-53.73277282714844	26.83944129943855	-319.2417907714844	
3	0.008	126.7579574584961	1744.957275390625	-332.0115966796871	68.40589141845703	1695.47119140625	-254.1643829345699	68.52711486816406	1695.62939453125	-402.131927490234	-69.48770141601562	1525.802856445312	-328.2675476074215	-143.9237823486328	1329.64892578125	-259.5288085937497	-139.9157104492188	1331.009887695312	-401.5122375488278	108.0478897094727	1365.283447265625	-318.9960937499997	2.759583950042725	1483.56787109375	-153.4964599609372	-46.10006332397461	1328.44775390625	-57.91102981567353	11.99549293518066	1241.41162109375	-48.06608963012668	-110.0125503540039	1247.636596679688	-45.80942153930636	-59.9044189453125	1139.521850585938	-32.07004547119115	-89.16483306884766	1135.912841796875	-110.5301818847654	28.85736846923828	955.01513671875	-19.10919380187967	68.58235168457031	887.5932006835938	-56.16592025756816	-1.374224424362183	865.8077392578125	-21.81811714172344	65.74568176269531	799.59228515625	0.5580118298532354	11.87015914916992	1477.999755859375	-492.6494445800778	-3.950448751449585	1311.076904296875	-590.3414306640622	59.70178985595703	1231.388305664063	-584.0137939453123	-60.23984527587891	1232.036010742188	-616.4007568359373	0.794786274433136	1129.052978515625	-621.1188964843748	-51.24907684326172	1120.898559570313	-564.216613769531	134.4981536865234	975.8218994140626	-585.3663940429685	176.7088317871094	931.0031127929689	-531.9518432617185	137.7956848144531	889.3683471679689	-586.3786621093748	228.3382568359375	867.6104125976564	-576.9164428710935	2.436647415161133	1079.66455078125	-152.6880187988279	-123.9924468994141	1047.967041015625	-318.3051452636716	-3.461807489395142	1071.125366210938	-495.0893554687498	-29.11472320556641	928.5958251953125	-130.4588928222654	90.69258880615234	660.8653564453125	-148.219512939453	139.9607696533203	692.3639526367188	-142.7580413818358	174.7381896972656	594.9550170898438	-174.0831451416014	111.159782409668	582.3143310546875	-165.6188812255858	107.0436325073242	365.5428466796876	-162.5758972167968	163.6390228271484	345.5242004394532	-170.7933654785155	162.810791015625	260.7323913574219	-186.5466308593749	98.35945892333984	265.8934936523438	-183.1549377441406	77.61943817138672	49.33867645263678	-270.1195373535156	226.0768127441406	32.4110260009766	-163.6252899169922	288.1832275390625	52.50578308105474	-242.8564605712891	-44.66315078735352	958.0068969726564	-494.2969665527341	-2.834786176681519	664.1745605468751	-475.2368164062498	-52.58753204345703	691.8257446289064	-491.7806701660155	-81.01743316650391	597.2069091796876	-459.8268737792968	-19.93333625793457	587.7258300781251	-450.3754882812499	-113.2033157348633	328.6345825195314	-439.0879211425781	-173.7119903564453	317.8942260742189	-440.4362487792968	-192.3784790039062	234.0401763916016	-421.2650146484374	-128.1000518798828	229.166732788086	-414.1937561035156	-265.9855041503906	56.61983489990242	-346.8309326171875	-94.7318115234375	20.47138595581064	-422.9249877929688	-53.67390060424805	26.90728950500495	-319.33447265625	
4	0.012	132.2096099853516	1744.067993164062	-331.689788818359	74.07939910888672	1694.397705078125	-253.648284912109	74.14147186279297	1694.738525390625	-401.7373657226559	-64.00376129150391	1524.883178710938	-328.0642089843747	-138.5012359619141	1328.626953125	-259.611389160156	-134.3992156982422	1330.2197265625	-401.3988647460935	113.6109161376953	1364.104614257812	-318.9299011230466	8.07813549041748	1482.448120117188	-153.1338500976559	-41.0778694152832	1327.45263671875	-57.69254302978486	16.89772605895996	1240.326171875	-47.7840156555173	-105.2014312744141	1246.78759765625	-46.00318527221652	-61.92713165283203	1140.2216796875	-32.08507156372045	-81.20501708984375	1133.6865234375	-111.371772766113	33.24446487426758	954.0480346679688	-18.68253135681131	73.11166381835938	886.6337890625	-55.38283538818339	3.099146366119385	864.7802734375	-21.3796787261961	69.88372039794922	798.4645385742188	1.197518110275446	17.66255187988281	1477.105102539062	-492.3424377441403	2.205805063247681	1310.200439453125	-590.1417846679684	66.05428314208984	1230.693237304688	-583.8183593749998	-53.76521682739258	1231.09375	-616.4503784179685	7.72935152053833	1128.250610351563	-621.2767333984373	-44.64850616455078	1119.840454101563	-564.6184082031248	141.9116821289062	975.8004760742189	-584.690002441406	183.9063415527344	931.0003662109376	-530.2265624999998	145.6893157958984	889.2318115234376	-585.7951660156248	236.3135681152344	868.1029052734376	-575.7288818359373	8.18235969543457	1078.685424804688	-152.4352264404295	-117.5295639038086	1046.86865234375	-317.2772216796873	1.341455459594727	1070.187622070312	-495.1588134765623	-23.6179256439209	927.4706420898438	-130.5361328124998	95.83706665039062	659.646728515625	-148.4756774902342	145.2209014892578	691.3255004882812	-142.5829315185545	180.2211303710938	594.1151123046875	-174.3480224609374	116.4502563476562	581.3472900390625	-166.1385803222655	116.4883499145508	363.9674682617188	-162.9252624511718	173.4115753173828	345.0893249511719	-171.0431976318359	174.5905151367188	260.3514709472657	-186.104995727539	110.0382537841797	264.1777648925782	-183.3521118164062	94.84685516357422	47.00341033935553	-269.9659423828125	243.4911041259766	33.30502700805668	-163.8861541748047	304.9718627929688	54.34816741943365	-243.0976409912109	-39.89378356933594	957.4383544921876	-494.1221923828123	-0.3135213553905487	663.8916625976564	-475.664581298828	-49.87043380737305	691.8300170898439	-491.8121032714842	-78.47582244873047	597.3023071289064	-460.2723693847655	-17.80469512939453	587.3479614257814	-450.5190429687499	-112.4032440185547	328.8067321777345	-439.2709960937499	-172.9318084716797	318.2923583984376	-440.4690551757812	-191.8399810791016	234.493881225586	-421.1396484374999	-127.6061935424805	229.7105407714845	-414.4894714355468	-265.8673706054688	57.27979660034188	-346.6043701171875	-94.78295135498047	20.41015052795419	-422.98486328125	-53.66988754272461	27.11948013305671	-319.6790466308594	
